<svg width="380" height="645" viewBox="0 0 380 645" fill="none" xmlns="http://www.w3.org/2000/svg">
<g clip-path="url(#clip0_105_510)">
<rect width="380" height="645" rx="8" fill="white"/>
<rect width="380" height="645" fill="white"/>
<path d="M-69.2977 606.126C-28.8311 715.699 185.49 824.875 185.49 824.875C185.49 824.875 743.768 551.715 498.104 393.756C428.288 348.866 360.977 255.425 272.365 299.385C215.104 327.792 183.396 397.047 146.79 373.134C36.9764 301.397 -56.1286 429.294 -81.1795 495.532C-94.6488 531.145 -85.8072 561.423 -69.2977 606.126Z" fill="#4FD1C5"/>
<path d="M570.5 560.5C570.5 721.762 438.429 852.5 275.5 852.5C112.571 852.5 -19.5 721.762 -19.5 560.5C-19.5 399.238 112.571 268.5 275.5 268.5C438.429 268.5 570.5 399.238 570.5 560.5Z" stroke="white"/>
<path d="M530.549 560.5C530.549 699.922 416.365 812.955 275.5 812.955C134.636 812.955 20.451 699.922 20.451 560.5C20.451 421.078 134.636 308.045 275.5 308.045C416.365 308.045 530.549 421.078 530.549 560.5Z" stroke="white"/>
<path d="M485.087 560.5C485.087 675.069 391.257 767.954 275.5 767.954C159.743 767.954 65.9125 675.069 65.9125 560.5C65.9125 445.931 159.743 353.045 275.5 353.045C391.257 353.045 485.087 445.931 485.087 560.5Z" stroke="white"/>
<path d="M439.626 560.5C439.626 650.216 366.149 722.954 275.5 722.954C184.851 722.954 111.374 650.216 111.374 560.5C111.374 470.784 184.851 398.045 275.5 398.045C366.149 398.045 439.626 470.784 439.626 560.5Z" stroke="white"/>
<path d="M395.542 560.5C395.542 626.117 341.802 679.318 275.5 679.318C209.197 679.318 155.458 626.117 155.458 560.5C155.458 494.883 209.197 441.682 275.5 441.682C341.802 441.682 395.542 494.883 395.542 560.5Z" stroke="white"/>
<path d="M355.591 560.5C355.591 604.276 319.738 639.773 275.5 639.773C231.262 639.773 195.409 604.276 195.409 560.5C195.409 516.724 231.262 481.227 275.5 481.227C319.738 481.227 355.591 516.724 355.591 560.5Z" stroke="white"/>
<path d="M323.627 560.5C323.627 586.802 302.084 608.133 275.5 608.133C248.916 608.133 227.374 586.802 227.374 560.5C227.374 534.198 248.916 512.867 275.5 512.867C302.084 512.867 323.627 534.198 323.627 560.5Z" stroke="white"/>
<path d="M315.951 345.717C315.951 328.023 296.491 333.664 293.18 334.772C289.868 335.881 282.14 310.386 282.14 310.386C282.14 310.386 242.399 307.06 234.671 314.819C234.671 314.819 232.463 348.074 233.567 369.135C234.671 390.196 241.411 399.043 249.138 399.043C251.582 398.906 253.984 398.343 256.236 397.38V436.151L302.98 411.822L297.223 366.022C297.46 365.883 297.595 365.81 297.595 365.81C297.595 365.81 315.951 362.428 315.951 345.717Z" fill="#FFB7B6"/>
<path d="M233.408 343.647C233.408 343.647 235.564 325.445 235.839 320.405C236.233 313.156 242.957 311.635 246.911 316.719C252.596 324.27 262.246 327.645 271.374 325.277C279.381 323.404 282.754 321.254 283.488 329.369C284.222 337.485 286.975 350.961 289.545 347.356C292.115 343.751 294.99 335.826 300.081 334.904C307.861 333.496 312.673 342.823 310.837 348.386C309.002 353.949 306.406 357.418 296.803 362.679L299.798 386.506C323.593 354.823 332.557 311.313 300.283 301.237C288.226 297.473 275.7 273.08 252.369 278.629C235.839 282.561 235.839 295.278 234.663 306.337C212.454 307.258 233.408 343.647 233.408 343.647Z" fill="#352316"/>
<ellipse cx="258.335" cy="340.238" rx="2.06495" ry="3.40969" fill="#161B36"/>
<ellipse cx="237.903" cy="341.655" rx="2.06495" ry="3.40969" fill="#161B36"/>
<path d="M254.067 326.599C254.802 325.769 255.811 325.124 258.84 325.309C261.868 325.493 266.457 328.35 265.448 329.087C264.438 329.824 261.41 327.336 259.023 328.165C256.637 328.995 255.267 329.677 254.465 329.225C253.456 328.657 253.715 326.998 254.067 326.599Z" fill="#161B36"/>
<path d="M240.943 325.753C239.981 325.206 238.818 324.923 236.011 326.079C233.204 327.235 229.78 331.427 230.972 331.797C232.165 332.168 234.231 328.831 236.756 328.842C239.281 328.854 240.797 329.055 241.411 328.368C242.184 327.502 241.405 326.016 240.943 325.753Z" fill="#161B36"/>
<g style="mix-blend-mode:overlay" opacity="0.6">
<path d="M245.423 363.237C244.357 363.276 243.301 363.03 242.362 362.523C241.746 362.178 241.317 361.573 241.193 360.875C240.964 359.43 242.436 357.194 244.236 354.634C244.694 354.023 245.113 353.384 245.491 352.721C245.857 351.933 245.753 344.756 245.44 338.271L246.543 338.218C246.651 340.467 247.158 351.756 246.492 353.189C246.09 353.915 245.637 354.612 245.137 355.274C244.004 356.886 242.107 359.584 242.283 360.701C242.357 361.079 242.599 361.402 242.94 361.579C244.525 362.263 246.309 362.319 247.933 361.735L248.271 362.79C247.35 363.085 246.389 363.235 245.423 363.237Z" fill="#030F1C"/>
</g>
<path d="M244.086 373.783C243.992 373.456 244.033 373.105 244.198 372.808C244.363 372.51 244.64 372.292 244.967 372.2C246.591 371.728 249.585 370.84 251.865 370.061C254.243 369.114 256.555 368.01 258.786 366.755C259.175 366.543 259.646 366.547 260.031 366.766C260.416 366.985 260.662 367.387 260.681 367.831C260.836 371.243 260.427 377.906 255.084 379.264C248.586 380.916 245.184 377.386 244.086 373.783Z" fill="#161B36"/>
<path d="M246.911 378.037C246.911 378.037 252.502 370.195 260.489 371.986C260.489 371.986 260.502 378.111 255.352 379.491C249.808 380.977 246.911 378.037 246.911 378.037Z" fill="#E55151"/>
<path d="M303.769 341.936C298.477 340.138 293.562 351.705 293.355 352.199C293.237 352.481 293.369 352.806 293.65 352.925C293.931 353.043 294.254 352.911 294.372 352.629C295.228 350.632 296.274 348.723 297.497 346.93C298.613 346.734 299.761 346.945 300.736 347.524C301.703 348.247 302.321 349.347 302.436 350.552C302.48 350.82 302.71 351.016 302.98 351.016C303.01 351.016 303.04 351.014 303.07 351.009C303.215 350.985 303.344 350.904 303.429 350.785C303.514 350.665 303.549 350.517 303.525 350.372C303.332 347.689 301.05 345.645 298.374 345.76C299.946 343.805 301.739 342.414 303.415 342.986C303.601 343.049 303.808 343.008 303.956 342.877C304.104 342.747 304.172 342.547 304.133 342.352C304.095 342.158 303.956 341.999 303.769 341.936H303.769Z" fill="#0B122D"/>
<path d="M256.236 397.936C255.975 397.936 255.75 397.753 255.696 397.497C255.642 397.24 255.774 396.981 256.012 396.875C256.194 396.794 274.332 388.646 281.987 378.797C282.175 378.557 282.521 378.515 282.761 378.703C283 378.891 283.044 379.238 282.857 379.479C275.03 389.548 257.214 397.553 256.459 397.888C256.389 397.92 256.313 397.936 256.236 397.936Z" fill="#0B122D"/>
<path d="M282.101 319.76C281.978 319.76 281.86 319.719 281.763 319.643C273.433 313.148 276.533 300.557 276.669 300.024C276.745 299.729 277.045 299.551 277.34 299.627C277.634 299.703 277.812 300.003 277.738 300.299C277.707 300.422 274.686 312.721 282.44 318.767C282.626 318.913 282.7 319.161 282.624 319.385C282.547 319.609 282.337 319.76 282.101 319.76V319.76Z" fill="white"/>
<g style="mix-blend-mode:overlay" opacity="0.6">
<path d="M256.273 397.635C256.273 397.635 272.181 390.204 277.32 384.798C277.32 384.798 276.133 399.374 265.627 409.618C255.121 419.862 256.273 411.584 256.273 411.584L256.273 397.635Z" fill="#030F1C"/>
</g>
<path fill-rule="evenodd" clip-rule="evenodd" d="M398.598 507.818C402.556 518.027 407.017 529.537 412.149 542.529C421.306 565.707 405.949 588.463 374.5 585.33C367.081 584.591 359.771 583.782 352.178 582.789C351.642 594.584 351.767 606.376 357.125 626.822C360.171 639.211 361.813 651.907 362.02 664.666C362.02 664.666 232.583 686.538 206.124 664.666C200.634 660.129 203.326 649.252 205.773 639.365C206.981 634.485 208.128 629.847 208.204 626.33C208.417 616.429 208.873 607.015 209.305 598.104C209.573 592.569 209.831 587.229 210.017 582.085C206.973 586.804 203.657 591.504 200.014 596.159C188.577 610.766 179.938 616.017 164.128 607.6C149.306 599.709 129.989 582.579 95.1501 548.334C94.0062 548.738 92.7406 548.587 91.7224 547.926L84.9913 543.422C83.1665 542.23 81.2984 537.165 82.4853 535.333L99.6912 508.512C100.878 506.679 105.447 505.003 107.272 506.195L115.339 511.462C117.162 512.653 117.68 515.102 116.496 516.934L124.207 521.399L166.608 547.707C167.579 548.313 168.793 548.372 169.818 547.863C170.843 547.354 171.533 546.35 171.644 545.207C173.046 530.691 175.284 516.268 178.346 502.011C184.451 474.153 195.359 443.079 214.3 434.698C227.201 426.955 247.484 418.186 247.484 418.186L267.867 432.336L305.731 415.237C305.731 415.237 332.66 420.953 343.857 424.483C368.982 431.411 374.268 445.048 398.598 507.818ZM354.303 531.588C354.211 534.004 354.12 536.374 354.03 538.699L357.902 538.882C356.653 536.321 355.674 534.318 354.303 531.588Z" fill="#34AD82"/>
<path d="M63.1991 488.254C63.0384 488.255 62.8855 488.184 62.7808 488.062C49.898 473.014 54.3968 460.813 54.5952 460.301C54.706 460.017 55.0248 459.876 55.3084 459.986C55.5919 460.097 55.7334 460.416 55.6247 460.701C55.5784 460.821 51.1917 472.825 63.6175 487.338C63.7585 487.503 63.7913 487.734 63.7013 487.931C63.6113 488.128 63.4151 488.255 63.1992 488.254H63.1991Z" fill="#0B122D"/>
<rect width="34.7441" height="63.7545" rx="2.86665" transform="matrix(0.979905 -0.199465 0.197896 0.980223 22.2728 435.629)" fill="#3871D6"/>
<g style="mix-blend-mode:overlay" opacity="0.6">
<path d="M65.8672 486.475L55.3222 434.243C54.975 432.523 53.305 431.411 51.592 431.76L46.5305 432.79L46.5778 433.025C46.6634 433.449 46.5778 433.889 46.3397 434.25C46.1016 434.61 45.7307 434.861 45.3084 434.947L34.8374 437.079C34.4152 437.165 33.9763 437.079 33.6172 436.84C33.258 436.601 33.0082 436.228 32.9225 435.804L32.8752 435.57L27.8137 436.6C26.1009 436.949 24.9938 438.626 25.3409 440.346L35.886 492.578C36.0527 493.404 36.5394 494.129 37.239 494.595C37.9385 495.061 38.7936 495.228 39.6162 495.061L63.3944 490.221C64.217 490.053 64.9397 489.565 65.4034 488.862C65.8672 488.159 66.034 487.301 65.8672 486.475Z" fill="white"/>
</g>
<g style="mix-blend-mode:overlay" opacity="0.6">
<path d="M210.284 566.615C210.195 555.965 208.342 535.201 206.523 513.601C205.095 516.315 203.906 519.148 202.969 522.069C195.843 544.384 203.231 557.722 202.903 569.541C202.647 578.755 183.307 592.241 192.369 604.77C197.057 599.789 200.014 596.158 200.014 596.158C203.655 591.507 206.974 586.81 210.016 582.093C210.21 576.718 210.326 571.552 210.284 566.615Z" fill="#030F1C"/>
</g>
<g style="mix-blend-mode:overlay" opacity="0.6">
<path d="M164.06 559.271C161.733 558.125 136.252 544.271 126.339 535.16C120.832 530.099 121.662 523.848 124.207 521.398L166.607 547.707C167.579 548.313 168.793 548.372 169.818 547.863C170.843 547.354 171.533 546.35 171.644 545.207C173.046 530.69 175.284 516.268 178.346 502.011C182.016 503.559 186.054 507.245 184.953 517.566C183.746 528.877 183.607 550.546 179.202 557.745C178.079 559.58 172.682 563.52 164.06 559.271Z" fill="white"/>
</g>
<path d="M170.501 568.551C170.308 568.551 170.129 568.45 170.029 568.285C169.928 568.119 169.921 567.914 170.01 567.742C174.303 559.426 170.715 550.851 170.678 550.766C170.557 550.485 170.686 550.159 170.966 550.037C171.246 549.916 171.571 550.045 171.692 550.326C171.85 550.695 175.53 559.457 170.991 568.252C170.896 568.435 170.707 568.551 170.501 568.551Z" fill="#0B122D"/>
<g style="mix-blend-mode:overlay" opacity="0.6">
<path d="M97.1758 546.766L116.494 516.938C117.654 515.146 99.8659 528.776 98.1479 539.289C97.0356 546.095 91.4148 544.436 89.1101 542.228C85.8777 539.132 85.5317 530.584 85.5317 530.584C85.4909 530.557 82.7377 535.032 82.6981 535.004L82.4853 535.333C81.2985 537.165 83.1663 542.23 84.9913 543.422L91.7225 547.926C93.5475 549.118 95.989 548.598 97.1758 546.766Z" fill="#030F1C"/>
</g>
<path d="M210.307 566.261C210.034 566.261 209.802 566.06 209.762 565.79C206.088 541.284 203.906 468.77 203.885 468.041C203.876 467.735 204.116 467.479 204.421 467.47C204.568 467.462 204.712 467.515 204.819 467.617C204.927 467.719 204.988 467.86 204.989 468.008C205.01 468.737 207.189 541.184 210.853 565.625C210.899 565.928 210.691 566.21 210.39 566.256C210.362 566.259 210.335 566.261 210.307 566.261Z" fill="#0B122D"/>
<g style="mix-blend-mode:overlay" opacity="0.60001">
<path d="M198.774 448.449C201.425 444.452 204.741 440.943 208.577 438.075C217.909 431.525 245.377 419.024 245.377 419.024L249.159 426.649C241.173 430.272 232.88 433.17 224.379 435.309C211.347 438.444 198.774 448.449 198.774 448.449Z" fill="white"/>
</g>
<path d="M221.053 644.578C220.956 644.578 220.861 644.553 220.777 644.504C211.145 638.925 207.808 626.982 207.671 626.476C207.591 626.181 207.764 625.876 208.058 625.796C208.352 625.715 208.656 625.889 208.736 626.184C208.768 626.304 212.097 638.196 221.329 643.544C221.545 643.67 221.65 643.925 221.586 644.167C221.521 644.41 221.303 644.578 221.053 644.578Z" fill="#0B122D"/>
<g style="mix-blend-mode:overlay" opacity="0.6">
<path d="M354.542 532.064C352.707 528.401 350.193 523.49 345.24 513.919C344.843 513.154 344.445 512.378 344.037 511.602C343.639 510.837 343.231 510.061 342.822 509.286C339.643 503.205 336.224 496.761 332.649 490.156C331.436 505.985 331.529 521.887 332.929 537.7L354 538.697C354.188 536.266 354.372 534.04 354.542 532.064Z" fill="#030F1C"/>
</g>
<g style="mix-blend-mode:overlay" opacity="0.6">
<path d="M352.07 582.774C348.006 582.242 343.861 581.657 339.569 580.997C341.111 611.936 328.156 633.521 315.276 647.219C302.033 661.301 274.65 664.666 254.989 674.387C292.638 676.462 362.02 664.666 362.02 664.666C362.02 664.666 362.02 641.298 355.39 619.7C352.884 610.955 352.059 597.208 352.07 582.774Z" fill="#030F1C"/>
</g>
<g style="mix-blend-mode:overlay" opacity="0.6">
<path d="M282.032 435.685L323.747 419.285L305.73 415.236L282.032 435.685Z" fill="#030F1C"/>
</g>
<path d="M342.981 505.356C342.869 505.356 342.759 505.321 342.667 505.257C326.882 494.252 326.832 470.297 326.833 470.056C326.835 469.752 327.082 469.506 327.385 469.505H327.388C327.693 469.508 327.938 469.757 327.937 470.063C327.936 470.298 327.993 493.677 343.296 504.346C343.495 504.484 343.581 504.736 343.509 504.967C343.436 505.199 343.223 505.356 342.981 505.356Z" fill="#0B122D"/>
<path d="M356.234 583.862C356.202 583.862 356.17 583.859 356.139 583.854L307.745 575.478C307.55 575.445 307.388 575.31 307.319 575.124C307.251 574.938 307.286 574.729 307.413 574.577C307.54 574.425 307.738 574.352 307.933 574.386L356.327 582.762C356.609 582.81 356.808 583.068 356.783 583.354C356.759 583.641 356.52 583.862 356.234 583.862H356.234Z" fill="#0B122D"/>
<path d="M371.048 550.029C370.778 550.029 370.549 549.833 370.504 549.566C370.444 549.202 368.91 540.652 358.821 540.361C358.517 540.352 358.277 540.097 358.285 539.792C358.287 539.644 358.349 539.503 358.456 539.401C358.563 539.3 358.706 539.246 358.854 539.253C369.869 539.571 371.577 549.288 371.593 549.386C371.617 549.531 371.582 549.68 371.497 549.799C371.411 549.918 371.282 549.999 371.138 550.022C371.108 550.027 371.078 550.029 371.048 550.029Z" fill="#0B122D"/>
<g style="mix-blend-mode:overlay" opacity="0.6">
<path d="M333.293 546.625C320.72 545.06 317.862 541.004 317.862 536.986L357.902 538.882C354.999 532.93 341.91 507.54 341.501 506.764C345.279 505.549 350.095 508.906 354.126 515.293C358.837 522.757 372.022 540.912 366.627 546.103C363.523 549.09 340.416 547.512 333.293 546.625Z" fill="white"/>
</g>
<g style="mix-blend-mode:overlay" opacity="0.6">
<path d="M305.858 572.402L307.837 536.877C307.956 534.743 299.278 555.452 302.997 565.43C305.404 571.89 299.707 573.259 296.614 572.495C292.275 571.424 287.74 564.182 287.74 564.182C287.691 564.179 287.52 569.436 287.472 569.431L287.45 569.823C287.329 572.005 291.459 575.466 293.632 575.588L301.703 576.133C302.747 576.191 303.771 575.831 304.55 575.131C305.329 574.432 305.8 573.45 305.858 572.402Z" fill="#030F1C"/>
</g>
<path d="M335.183 538.505L335.161 538.505L307.816 537.43C307.52 537.419 307.286 537.174 307.286 536.876V536.076C307.292 534.803 306.321 533.74 305.057 533.637L294.468 532.716C294.164 532.69 293.939 532.422 293.965 532.117C293.995 531.814 294.26 531.59 294.562 531.612L305.152 532.532C306.988 532.682 308.399 534.227 308.39 536.076V536.343L335.204 537.397C335.505 537.409 335.741 537.66 335.735 537.962C335.729 538.264 335.483 538.505 335.183 538.505L335.183 538.505Z" fill="#0B122D"/>
<path fill-rule="evenodd" clip-rule="evenodd" d="M273.201 421.276C294.285 408.018 300.699 396.314 300.699 396.314L305.731 415.236L282.033 435.686C281.044 433.07 279.835 430.542 278.421 428.131L267.867 432.336L273.201 421.276ZM247.484 418.185L255.56 408.601C255.56 408.601 256.065 416.431 265.485 420.737L267.867 432.336L261.709 428.061L255.637 436.108L247.484 418.185Z" fill="#2D2B72"/>
<g style="mix-blend-mode:overlay" opacity="0.6">
<path d="M273.201 421.276L267.867 432.336L278.421 428.131C277.053 425.583 275.291 423.269 273.201 421.276V421.276Z" fill="#030F1C"/>
</g>
<g style="mix-blend-mode:overlay" opacity="0.6">
<path d="M265.484 420.738L267.867 432.336L261.709 428.061L265.484 420.738Z" fill="#030F1C"/>
</g>
<path fill-rule="evenodd" clip-rule="evenodd" d="M271.324 425.167L266.476 425.564L267.868 432.336L271.324 425.167ZM72.0573 487.205C72.4446 488.304 74.8974 490.96 77.4629 493.535L77.4633 493.534L99.07 509.48L84.1394 532.754L69.5425 520.312C69.5425 520.312 59.2508 509.579 49.8897 506.63C45.1492 505.137 41.8024 501.132 39.0547 497.274L65.8339 491.823C66.6565 491.656 67.3791 491.167 67.8429 490.465C68.3066 489.762 68.4735 488.904 68.3067 488.078L62.4882 459.257C62.6127 458.631 62.7769 458.014 62.9798 457.409C64.8178 452.021 72.6812 451.338 73.2192 452.773C73.42 453.307 72.9315 455.414 72.2742 458.249C71.167 463.025 69.5807 469.868 70.0009 474.744C70.3042 478.953 70.9925 483.124 72.0573 487.205ZM34.1343 467.812C33.3555 468.967 32.0122 469.604 30.6291 469.475L25.9565 468.933C24.4893 468.762 23.3341 467.597 23.1719 466.123L23.0571 465.079C22.9543 464.146 23.2672 463.215 23.912 462.536C24.5568 461.856 25.4676 461.497 26.4007 461.555L31.0937 461.846C32.4822 461.887 33.7381 462.684 34.371 463.926C35.0038 465.168 34.9131 466.657 34.1343 467.812ZM35.082 474.552C34.5235 472.809 32.8263 471.698 31.0131 471.887L27.0141 472.217C26.214 472.283 25.4813 472.693 25.0044 473.342C24.5275 473.99 24.3527 474.814 24.5251 475.601L24.9146 477.379C25.1928 478.651 26.309 479.561 27.6054 479.573L31.2749 479.608C32.5307 479.652 33.7293 479.08 34.4872 478.073C35.245 477.067 35.467 475.753 35.082 474.552ZM29.6559 483.702L33.0318 483.303L33.0318 483.303C34.2076 483.059 35.4226 483.474 36.2067 484.387C36.9909 485.3 37.2212 486.567 36.8086 487.699C36.3961 488.832 35.4053 489.65 34.2196 489.839L30.7576 490.073C29.7501 490.141 28.8156 489.543 28.4514 488.597L27.7741 486.838C27.5169 486.17 27.5817 485.42 27.9497 484.807C28.3178 484.194 28.9476 483.786 29.6559 483.702ZM248.346 535.738L260.969 537.71L288.974 540.161L287.64 566.124L246.82 558.199L239.719 556.943C239.719 556.943 209.696 558.313 204.288 555.301C198.88 552.29 202.254 549.392 202.254 549.392C202.254 549.392 193.548 546.547 197.271 541.656C197.271 541.656 189.58 539.957 192.124 533.624C192.124 533.624 166.291 531.522 167.527 526.808C168.764 522.094 219.471 525.922 219.471 525.922C219.471 525.922 203.314 509.5 209.093 504.561C215.495 510.818 222.898 515.949 230.995 519.739C244.426 526.02 248.346 535.738 248.346 535.738Z" fill="#FFB7B6"/>
<path d="M202.97 533.876H193.368C193.063 533.876 192.816 533.628 192.816 533.322C192.816 533.015 193.063 532.767 193.368 532.767H202.97C203.274 532.767 203.521 533.015 203.521 533.322C203.521 533.628 203.274 533.876 202.97 533.876Z" fill="#030F1C"/>
<path d="M211.071 542.124H198.471C198.166 542.124 197.919 541.876 197.919 541.57C197.919 541.264 198.166 541.016 198.471 541.016H211.071C211.376 541.016 211.623 541.264 211.623 541.57C211.623 541.876 211.376 542.124 211.071 542.124Z" fill="#030F1C"/>
<path d="M212.179 549.817H203.712C203.407 549.817 203.16 549.569 203.16 549.262C203.16 548.956 203.407 548.708 203.712 548.708H212.179C212.484 548.708 212.731 548.956 212.731 549.262C212.731 549.569 212.484 549.817 212.179 549.817Z" fill="#030F1C"/>
</g>
<defs>
<clipPath id="clip0_105_510">
<rect width="380" height="645" rx="8" fill="white"/>
</clipPath>
</defs>
</svg>
